<svg width="24" height="25" viewBox="0 0 24 25" fill="none" xmlns="http://www.w3.org/2000/svg">
<path d="M20.5603 10.5868L13.0603 3.08682C12.779 2.80573 12.3977 2.64783 12 2.64783C11.6024 2.64783 11.221 2.80573 10.9397 3.08682L3.4397 10.5868C3.29973 10.7257 3.18878 10.8911 3.1133 11.0733C3.03782 11.2555 2.99931 11.4509 3.00001 11.6481V20.6481C3.00001 20.847 3.07903 21.0377 3.21968 21.1784C3.36033 21.3191 3.5511 21.3981 3.75001 21.3981H9.75001C9.94892 21.3981 10.1397 21.3191 10.2803 21.1784C10.421 21.0377 10.5 20.847 10.5 20.6481V15.3981H13.5V20.6481C13.5 20.847 13.579 21.0377 13.7197 21.1784C13.8603 21.3191 14.0511 21.3981 14.25 21.3981H20.25C20.4489 21.3981 20.6397 21.3191 20.7803 21.1784C20.921 21.0377 21 20.847 21 20.6481V11.6481C21.0007 11.4509 20.9622 11.2555 20.8867 11.0733C20.8112 10.8911 20.7003 10.7257 20.5603 10.5868ZM19.5 19.8981H15V14.6481C15 14.4492 14.921 14.2584 14.7803 14.1177C14.6397 13.9771 14.4489 13.8981 14.25 13.8981H9.75001C9.5511 13.8981 9.36033 13.9771 9.21968 14.1177C9.07903 14.2584 9.00001 14.4492 9.00001 14.6481V19.8981H4.50001V11.6481L12 4.14807L19.5 11.6481V19.8981Z" fill="#B3B3B2"/>
</svg>
