<svg width="24" height="25" viewBox="0 0 24 25" fill="none" xmlns="http://www.w3.org/2000/svg">
<g clip-path="url(#clip0_238_1704)">
<path d="M23.25 11.6481H22.5V8.64807C22.5 8.25025 22.342 7.86872 22.0607 7.58741C21.7794 7.30611 21.3978 7.14807 21 7.14807H19.5V6.39807C19.5 6.00025 19.342 5.61872 19.0607 5.33741C18.7794 5.05611 18.3978 4.89807 18 4.89807H15.75C15.3522 4.89807 14.9706 5.05611 14.6893 5.33741C14.408 5.61872 14.25 6.00025 14.25 6.39807V11.6481H9.75V6.39807C9.75 6.00025 9.59196 5.61872 9.31066 5.33741C9.02936 5.05611 8.64782 4.89807 8.25 4.89807H6C5.60218 4.89807 5.22064 5.05611 4.93934 5.33741C4.65804 5.61872 4.5 6.00025 4.5 6.39807V7.14807H3C2.60218 7.14807 2.22064 7.30611 1.93934 7.58741C1.65804 7.86872 1.5 8.25025 1.5 8.64807V11.6481H0.75C0.551088 11.6481 0.360322 11.7271 0.21967 11.8677C0.0790176 12.0084 0 12.1992 0 12.3981C0 12.597 0.0790176 12.7877 0.21967 12.9284C0.360322 13.0691 0.551088 13.1481 0.75 13.1481H1.5V16.1481C1.5 16.5459 1.65804 16.9274 1.93934 17.2087C2.22064 17.49 2.60218 17.6481 3 17.6481H4.5V18.3981C4.5 18.7959 4.65804 19.1774 4.93934 19.4587C5.22064 19.74 5.60218 19.8981 6 19.8981H8.25C8.64782 19.8981 9.02936 19.74 9.31066 19.4587C9.59196 19.1774 9.75 18.7959 9.75 18.3981V13.1481H14.25V18.3981C14.25 18.7959 14.408 19.1774 14.6893 19.4587C14.9706 19.74 15.3522 19.8981 15.75 19.8981H18C18.3978 19.8981 18.7794 19.74 19.0607 19.4587C19.342 19.1774 19.5 18.7959 19.5 18.3981V17.6481H21C21.3978 17.6481 21.7794 17.49 22.0607 17.2087C22.342 16.9274 22.5 16.5459 22.5 16.1481V13.1481H23.25C23.4489 13.1481 23.6397 13.0691 23.7803 12.9284C23.921 12.7877 24 12.597 24 12.3981C24 12.1992 23.921 12.0084 23.7803 11.8677C23.6397 11.7271 23.4489 11.6481 23.25 11.6481ZM3 16.1481V8.64807H4.5V16.1481H3ZM8.25 18.3981H6V6.39807H8.25V18.3981ZM18 18.3981H15.75V6.39807H18V16.8812C18 16.8868 18 16.8924 18 16.8981C18 16.9037 18 16.9093 18 16.9149V18.3981ZM21 16.1481H19.5V8.64807H21V16.1481Z" fill="#B3B3B2"/>
</g>
<defs>
<clipPath id="clip0_238_1704">
<rect width="24" height="24" fill="white" transform="translate(0 0.398071)"/>
</clipPath>
</defs>
</svg>
