<svg width="196" height="40" viewBox="0 0 196 40" fill="none" xmlns="http://www.w3.org/2000/svg">
<path d="M41.3769 14.1472C30.0696 17.4531 21.8927 20.7589 14.1476 25.6164H26.6221L23.1409 28.2206H0C18.5869 17.0213 41.3769 14.1472 41.3769 14.1472Z" fill="#0A0908"/>
<path d="M20.9341 23.8971C45.8965 9.80349 69.3882 11.8882 69.3882 11.8882C69.3882 11.8882 53.9047 13.6288 36.5052 23.8971H20.9341Z" fill="#0A0908"/>
<path d="M87.7452 27H84.0447L79.9253 11.4067H82.7181L85.2549 21.2747L85.9531 24.5795H86.1393L86.9772 21.2747L90.1191 11.4067H93.7731L97.1245 21.2747L98.0089 24.5795H98.1951L98.8467 21.2747L101.174 11.4067H103.92L100.01 27H96.3099L93.168 17.9233L92.0276 13.9202H91.8181L90.701 17.9233L87.7452 27ZM111.219 27.2327C107.425 27.2327 104.935 25.0916 104.935 21.2281C104.935 17.6207 107.402 15.2003 111.172 15.2003C114.756 15.2003 117.2 17.1785 117.2 20.6928C117.2 21.1118 117.177 21.4376 117.107 21.7867H107.286C107.379 24.021 108.473 25.2079 111.149 25.2079C113.569 25.2079 114.57 24.4166 114.57 23.0435V22.8573H117.084V23.0668C117.084 25.5338 114.663 27.2327 111.219 27.2327ZM111.126 17.1785C108.566 17.1785 107.449 18.3189 107.309 20.3903H114.826V20.3437C114.826 18.2026 113.593 17.1785 111.126 17.1785ZM121.596 27H119.083V11.4067H121.596V27ZM126.437 27H123.924V11.4067H126.437V27ZM136.515 27H134.025V13.6642H127.881V11.4067H142.636V13.6642H136.515V27ZM146.62 27H144.107V15.433H146.411V18.5517H146.574C146.923 16.6898 148.179 15.2003 150.553 15.2003C153.183 15.2003 154.324 17.0854 154.324 19.2732V20.7859H151.833V19.7619C151.833 18.1095 151.135 17.3414 149.413 17.3414C147.435 17.3414 146.62 18.4353 146.62 20.5067V27ZM159.3 27.2327C156.903 27.2327 155.39 26.1156 155.39 24.2072C155.39 22.4151 156.833 21.4841 159.114 21.2281L164.374 20.6696V19.9946C164.374 18.0862 163.536 17.4113 161.325 17.4113C159.184 17.4113 158.137 18.1095 158.137 19.8084V19.9015H155.646V19.8084C155.646 17.1785 157.834 15.2003 161.511 15.2003C165.189 15.2003 166.841 17.2018 166.841 19.9714V27H164.537V24.1141H164.374C163.769 26.0691 161.93 27.2327 159.3 27.2327ZM157.904 24.0442C157.904 24.9752 158.532 25.4174 159.975 25.4174C162.605 25.4174 164.374 24.4399 164.374 22.1591L159.836 22.6711C158.532 22.834 157.904 23.1366 157.904 24.0442ZM174.926 27.2327C171.11 27.2327 168.619 24.789 168.619 21.2281C168.619 17.6207 171.11 15.2003 174.926 15.2003C178.394 15.2003 180.931 17.1553 180.931 20.0412V20.2739H178.441V20.1343C178.441 18.3422 177.137 17.4578 174.88 17.4578C172.273 17.4578 171.11 18.6913 171.11 21.2281C171.11 23.7184 172.273 24.9752 174.88 24.9752C177.137 24.9752 178.441 24.0908 178.441 22.2987V22.1358H180.931V22.3918C180.931 25.2778 178.394 27.2327 174.926 27.2327ZM185.303 27H182.79V11.4067H185.303V20.0179H188.608L192.076 15.433H195.008L190.656 20.9954L194.985 27H192.029L188.608 22.2755H185.303V27Z" fill="black"/>
</svg>
