<svg width="24" height="25" viewBox="0 0 24 25" fill="none" xmlns="http://www.w3.org/2000/svg">
<path d="M11.25 20.6481C11.25 20.847 11.171 21.0377 11.0303 21.1784C10.8897 21.3191 10.6989 21.3981 10.5 21.3981H4.5C4.30109 21.3981 4.11032 21.3191 3.96967 21.1784C3.82902 21.0377 3.75 20.847 3.75 20.6481V4.14807C3.75 3.94916 3.82902 3.75839 3.96967 3.61774C4.11032 3.47709 4.30109 3.39807 4.5 3.39807H10.5C10.6989 3.39807 10.8897 3.47709 11.0303 3.61774C11.171 3.75839 11.25 3.94916 11.25 4.14807C11.25 4.34698 11.171 4.53775 11.0303 4.6784C10.8897 4.81905 10.6989 4.89807 10.5 4.89807H5.25V19.8981H10.5C10.6989 19.8981 10.8897 19.9771 11.0303 20.1177C11.171 20.2584 11.25 20.4492 11.25 20.6481ZM21.5306 11.8674L17.7806 8.11745C17.6399 7.97672 17.449 7.89765 17.25 7.89765C17.051 7.89765 16.8601 7.97672 16.7194 8.11745C16.5786 8.25818 16.4996 8.44905 16.4996 8.64807C16.4996 8.84709 16.5786 9.03797 16.7194 9.1787L19.1897 11.6481H10.5C10.3011 11.6481 10.1103 11.7271 9.96967 11.8677C9.82902 12.0084 9.75 12.1992 9.75 12.3981C9.75 12.597 9.82902 12.7877 9.96967 12.9284C10.1103 13.0691 10.3011 13.1481 10.5 13.1481H19.1897L16.7194 15.6174C16.5786 15.7582 16.4996 15.949 16.4996 16.1481C16.4996 16.3471 16.5786 16.538 16.7194 16.6787C16.8601 16.8194 17.051 16.8985 17.25 16.8985C17.449 16.8985 17.6399 16.8194 17.7806 16.6787L21.5306 12.9287C21.6004 12.859 21.6557 12.7763 21.6934 12.6853C21.7312 12.5942 21.7506 12.4966 21.7506 12.3981C21.7506 12.2995 21.7312 12.2019 21.6934 12.1109C21.6557 12.0198 21.6004 11.9371 21.5306 11.8674Z" fill="#B3B3B2"/>
</svg>
