<svg width="24" height="25" viewBox="0 0 24 25" fill="none" xmlns="http://www.w3.org/2000/svg">
<path d="M19.4119 7.21092C18.4397 6.23654 17.2842 5.46424 16.0121 4.93857C14.74 4.41289 13.3764 4.14425 12 4.14811H11.9625C6.19406 4.1678 1.5 8.92936 1.5 14.7541V16.8981C1.5 17.2959 1.65804 17.6775 1.93934 17.9588C2.22064 18.2401 2.60218 18.3981 3 18.3981H21C21.3978 18.3981 21.7794 18.2401 22.0607 17.9588C22.342 17.6775 22.5 17.2959 22.5 16.8981V14.6481C22.5039 13.2657 22.2328 11.8962 21.7027 10.6195C21.1725 9.34268 20.3938 8.18405 19.4119 7.21092ZM21 16.8981H11.2228L16.3566 9.83874C16.4737 9.67787 16.5221 9.47706 16.4911 9.2805C16.4602 9.08394 16.3524 8.90772 16.1916 8.79061C16.0307 8.6735 15.8299 8.6251 15.6333 8.65604C15.4368 8.68698 15.2605 8.79474 15.1434 8.95561L9.3675 16.8981H3V14.7541C3 14.4653 3.01406 14.1803 3.04031 13.8981H5.25C5.44891 13.8981 5.63968 13.8191 5.78033 13.6784C5.92098 13.5378 6 13.347 6 13.1481C6 12.9492 5.92098 12.7584 5.78033 12.6178C5.63968 12.4771 5.44891 12.3981 5.25 12.3981H3.30656C4.27406 8.75499 7.43156 6.00061 11.25 5.67999V7.89811C11.25 8.09702 11.329 8.28779 11.4697 8.42844C11.6103 8.56909 11.8011 8.64811 12 8.64811C12.1989 8.64811 12.3897 8.56909 12.5303 8.42844C12.671 8.28779 12.75 8.09702 12.75 7.89811V5.67905C14.6106 5.83563 16.3767 6.5662 17.8042 7.76982C19.2316 8.97345 20.2501 10.5907 20.7188 12.3981H18.75C18.5511 12.3981 18.3603 12.4771 18.2197 12.6178C18.079 12.7584 18 12.9492 18 13.1481C18 13.347 18.079 13.5378 18.2197 13.6784C18.3603 13.8191 18.5511 13.8981 18.75 13.8981H20.9691C20.9887 14.1466 21 14.3959 21 14.6481V16.8981Z" fill="#B3B3B2"/>
</svg>
