<svg width="24" height="25" viewBox="0 0 24 25" fill="none" xmlns="http://www.w3.org/2000/svg">
<path d="M12 7.89805C11.11 7.89805 10.24 8.16197 9.49995 8.65644C8.75993 9.15091 8.18315 9.85371 7.84256 10.676C7.50196 11.4982 7.41285 12.403 7.58648 13.276C7.76011 14.1489 8.1887 14.9507 8.81803 15.58C9.44737 16.2094 10.2492 16.638 11.1221 16.8116C11.995 16.9852 12.8998 16.8961 13.7221 16.5555C14.5444 16.2149 15.2472 15.6381 15.7416 14.8981C16.2361 14.1581 16.5 13.2881 16.5 12.3981C16.4988 11.205 16.0243 10.0611 15.1806 9.21744C14.337 8.3738 13.1931 7.89929 12 7.89805ZM12 15.3981C11.4067 15.3981 10.8267 15.2221 10.3333 14.8925C9.83996 14.5628 9.45544 14.0943 9.22837 13.5461C9.00131 12.9979 8.9419 12.3947 9.05766 11.8128C9.17341 11.2308 9.45913 10.6963 9.87869 10.2767C10.2983 9.85718 10.8328 9.57145 11.4147 9.4557C11.9967 9.33994 12.5999 9.39935 13.1481 9.62641C13.6962 9.85348 14.1648 10.238 14.4944 10.7313C14.8241 11.2247 15 11.8047 15 12.3981C15 13.1937 14.6839 13.9568 14.1213 14.5194C13.5587 15.082 12.7957 15.3981 12 15.3981ZM20.25 12.6006C20.2538 12.4656 20.2538 12.3306 20.25 12.1956L21.6488 10.4481C21.7221 10.3563 21.7729 10.2486 21.797 10.1336C21.8211 10.0187 21.8178 9.89966 21.7875 9.78618C21.5582 8.92424 21.2152 8.09666 20.7675 7.32524C20.7089 7.22429 20.6275 7.13841 20.5299 7.07445C20.4322 7.01049 20.321 6.9702 20.205 6.9568L17.9813 6.7093C17.8888 6.6118 17.795 6.51805 17.7 6.42805L17.4375 4.19868C17.424 4.08263 17.3836 3.97134 17.3195 3.87368C17.2553 3.77602 17.1693 3.69469 17.0681 3.63618C16.2964 3.18932 15.4689 2.84665 14.6072 2.61712C14.4936 2.58693 14.3746 2.58384 14.2596 2.6081C14.1447 2.63236 14.037 2.6833 13.9453 2.7568L12.2025 4.14805C12.0675 4.14805 11.9325 4.14805 11.7975 4.14805L10.05 2.75212C9.95826 2.67877 9.85057 2.62801 9.7356 2.60391C9.62064 2.57981 9.50162 2.58305 9.38814 2.61337C8.52634 2.84308 7.69881 3.18607 6.9272 3.63337C6.82625 3.69198 6.74037 3.77336 6.67641 3.87101C6.61245 3.96866 6.57216 4.0799 6.55876 4.19587L6.31126 6.42337C6.21376 6.51649 6.12001 6.61024 6.03001 6.70462L3.80064 6.96055C3.68459 6.97406 3.57329 7.01448 3.47563 7.07861C3.37797 7.14274 3.29665 7.2288 3.23814 7.32993C2.79128 8.10164 2.44861 8.92915 2.21907 9.79087C2.18888 9.90442 2.1858 10.0235 2.21006 10.1384C2.23432 10.2534 2.28526 10.3611 2.35876 10.4527L3.75001 12.1956C3.75001 12.3306 3.75001 12.4656 3.75001 12.6006L2.35407 14.3481C2.28073 14.4398 2.22997 14.5475 2.20587 14.6625C2.18177 14.7774 2.18501 14.8964 2.21532 15.0099C2.44463 15.8719 2.78764 16.6994 3.23532 17.4709C3.29394 17.5718 3.37532 17.6577 3.47297 17.7217C3.57062 17.7856 3.68186 17.8259 3.79782 17.8393L6.02158 18.0868C6.1147 18.1843 6.20845 18.2781 6.30283 18.3681L6.56251 20.5974C6.57601 20.7135 6.61644 20.8248 6.68057 20.9224C6.7447 21.0201 6.83076 21.1014 6.93189 21.1599C7.7036 21.6068 8.53111 21.9495 9.39283 22.179C9.50638 22.2092 9.62544 22.2123 9.74041 22.188C9.85537 22.1637 9.96303 22.1128 10.0547 22.0393L11.7975 20.6481C11.9325 20.6518 12.0675 20.6518 12.2025 20.6481L13.95 22.0468C14.0418 22.1201 14.1495 22.1709 14.2644 22.195C14.3794 22.2191 14.4984 22.2159 14.6119 22.1856C15.4738 21.9563 16.3014 21.6132 17.0728 21.1656C17.1738 21.1069 17.2597 21.0256 17.3236 20.9279C17.3876 20.8303 17.4279 20.719 17.4413 20.6031L17.6888 18.3793C17.7863 18.2868 17.88 18.1931 17.97 18.0981L20.1994 17.8356C20.3154 17.8221 20.4267 17.7816 20.5244 17.7175C20.6221 17.6534 20.7034 17.5673 20.7619 17.4662C21.2088 16.6945 21.5514 15.867 21.781 15.0052C21.8111 14.8917 21.8142 14.7726 21.79 14.6577C21.7657 14.5427 21.7148 14.435 21.6413 14.3434L20.25 12.6006ZM18.7406 11.9912C18.7566 12.2622 18.7566 12.5339 18.7406 12.8049C18.7295 12.9905 18.7876 13.1736 18.9038 13.3187L20.2341 14.9809C20.0814 15.466 19.886 15.9366 19.65 16.3871L17.5313 16.6271C17.3467 16.6476 17.1764 16.7358 17.0531 16.8746C16.8727 17.0776 16.6805 17.2698 16.4775 17.4502C16.3387 17.5735 16.2505 17.7439 16.23 17.9284L15.9947 20.0452C15.5442 20.2813 15.0736 20.4768 14.5885 20.6293L12.9253 19.299C12.7922 19.1927 12.6269 19.1348 12.4566 19.1349H12.4116C12.1406 19.1509 11.8688 19.1509 11.5978 19.1349C11.4123 19.1238 11.2292 19.1819 11.0841 19.2981L9.4172 20.6293C8.93207 20.4767 8.46147 20.2812 8.01095 20.0452L7.77095 17.9293C7.75047 17.7448 7.66228 17.5744 7.52345 17.4512C7.32049 17.2707 7.12829 17.0785 6.94783 16.8756C6.82457 16.7367 6.65421 16.6485 6.4697 16.6281L4.35282 16.3918C4.11675 15.9413 3.92129 15.4707 3.76876 14.9856L5.09907 13.3224C5.21524 13.1773 5.27337 12.9942 5.2622 12.8087C5.24626 12.5377 5.24626 12.2659 5.2622 11.9949C5.27337 11.8094 5.21524 11.6263 5.09907 11.4812L3.76876 9.81524C3.92141 9.33012 4.11687 8.85951 4.35282 8.40899L6.46876 8.16899C6.65328 8.14851 6.82364 8.06032 6.94689 7.92149C7.12735 7.71853 7.31955 7.52633 7.52251 7.34587C7.6619 7.22254 7.75045 7.05178 7.77095 6.8668L8.00626 4.75087C8.45673 4.5148 8.92735 4.31934 9.41251 4.1668L11.0756 5.49712C11.2208 5.61328 11.4038 5.67141 11.5894 5.66024C11.8604 5.6443 12.1321 5.6443 12.4031 5.66024C12.5887 5.67141 12.7718 5.61328 12.9169 5.49712L14.5828 4.1668C15.068 4.31945 15.5386 4.51491 15.9891 4.75087L16.2291 6.8668C16.2496 7.05132 16.3377 7.22168 16.4766 7.34493C16.6795 7.52539 16.8717 7.71759 17.0522 7.92055C17.1755 8.05939 17.3458 8.14757 17.5303 8.16805L19.6472 8.40337C19.8833 8.85384 20.0787 9.32445 20.2313 9.80962L18.901 11.4727C18.7837 11.6191 18.7255 11.804 18.7378 11.9912H18.7406Z" fill="#B3B3B2"/>
</svg>
